HIERARCHY
ROOT Hips
{
	OFFSET 0.000000 100.481300 0.000000
	CHANNELS 6 Xposition Yposition Zposition Xrotation Yrotation Zrotation
	JOINT Spine
	{
		OFFSET -0.279200 12.230698 -2.892100
		CHANNELS 3 Xrotation Yrotation Zrotation
		JOINT Spine1
		{
			OFFSET -0.325700 14.269203 -3.374200
			CHANNELS 3 Xrotation Yrotation Zrotation
			JOINT Spine2
			{
				OFFSET -0.372300 16.307602 -0.352600
				CHANNELS 3 Xrotation Yrotation Zrotation
				JOINT Neck
				{
					OFFSET -0.418800 17.814194 8.416900
					CHANNELS 3 Xrotation Yrotation Zrotation
					JOINT Head
					{
						OFFSET 0.000000 7.031097 3.806800
						CHANNELS 3 Xrotation Yrotation Zrotation
						JOINT HeadTop_End
						{
							OFFSET 0.000000 24.646606 12.978600
							CHANNELS 3 Xrotation Yrotation Zrotation
							End Site
							{
								OFFSET 0.000000 27.854965 0.000000
							}
						}
					}
				}
				JOINT LeftShoulder
				{
					OFFSET 16.952999 14.495407 -7.737500
					CHANNELS 3 Xrotation Yrotation Zrotation
					JOINT LeftArm
					{
						OFFSET 9.308998 -2.777710 0.208600
						CHANNELS 3 Xrotation Yrotation Zrotation
						JOINT LeftForeArm
						{
							OFFSET 29.972298 0.000000 0.000000
							CHANNELS 3 Xrotation Yrotation Zrotation
							JOINT LeftHand
							{
								OFFSET 26.026505 0.000000 0.000000
								CHANNELS 3 Xrotation Yrotation Zrotation
								JOINT LeftHandThumb1
								{
									OFFSET 12.240501 -7.147949 9.207150
									CHANNELS 3 Xrotation Yrotation Zrotation
									JOINT LeftHandThumb2
									{
										OFFSET 4.138618 -2.389435 2.389433
										CHANNELS 3 Xrotation Yrotation Zrotation
										JOINT LeftHandThumb3
										{
											OFFSET 2.726913 -1.574387 1.574386
											CHANNELS 3 Xrotation Yrotation Zrotation
											JOINT LeftHandThumb4
											{
												OFFSET 3.941010 -2.275345 2.275342
												CHANNELS 3 Xrotation Yrotation Zrotation
												End Site
												{
													OFFSET -0.005798 5.087799 0.009903
												}
											}
										}
									}
								}
								JOINT LeftHandIndex1
								{
									OFFSET 24.424698 -1.985611 5.953459
									CHANNELS 3 Xrotation Yrotation Zrotation
									JOINT LeftHandIndex2
									{
										OFFSET 6.426697 0.000000 0.000000
										CHANNELS 3 Xrotation Yrotation Zrotation
										JOINT LeftHandIndex3
										{
											OFFSET 5.337898 0.000000 0.000000
											CHANNELS 3 Xrotation Yrotation Zrotation
											JOINT LeftHandIndex4
											{
												OFFSET 4.409401 0.000000 0.000000
												CHANNELS 3 Xrotation Yrotation Zrotation
												End Site
												{
													OFFSET 0.000000 4.409363 0.014373
												}
											}
										}
									}
								}
								JOINT LeftHandMiddle1
								{
									OFFSET 23.810104 0.000000 0.000000
									CHANNELS 3 Xrotation Yrotation Zrotation
									JOINT LeftHandMiddle2
									{
										OFFSET 7.176498 0.000000 0.000000
										CHANNELS 3 Xrotation Yrotation Zrotation
										JOINT LeftHandMiddle3
										{
											OFFSET 6.774902 0.000000 0.000000
											CHANNELS 3 Xrotation Yrotation Zrotation
											JOINT LeftHandMiddle4
											{
												OFFSET 5.403328 0.000000 0.000000
												CHANNELS 3 Xrotation Yrotation Zrotation
												End Site
												{
													OFFSET -0.027702 5.403244 0.017414
												}
											}
										}
									}
								}
								JOINT LeftHandRing1
								{
									OFFSET 22.908401 -0.839279 -6.020567
									CHANNELS 3 Xrotation Yrotation Zrotation
									JOINT LeftHandRing2
									{
										OFFSET 6.337502 0.000000 0.000000
										CHANNELS 3 Xrotation Yrotation Zrotation
										JOINT LeftHandRing3
										{
											OFFSET 5.779297 0.000000 0.000000
											CHANNELS 3 Xrotation Yrotation Zrotation
											JOINT LeftHandRing4
											{
												OFFSET 4.965698 0.000000 0.000000
												CHANNELS 3 Xrotation Yrotation Zrotation
												End Site
												{
													OFFSET 0.000000 4.965668 0.016186
												}
											}
										}
									}
								}
								JOINT LeftHandPinky1
								{
									OFFSET 20.037003 -1.530319 -10.950146
									CHANNELS 3 Xrotation Yrotation Zrotation
									JOINT LeftHandPinky2
									{
										OFFSET 5.254700 0.000000 0.000000
										CHANNELS 3 Xrotation Yrotation Zrotation
										JOINT LeftHandPinky3
										{
											OFFSET 4.810204 0.000000 0.000000
											CHANNELS 3 Xrotation Yrotation Zrotation
											JOINT LeftHandPinky4
											{
												OFFSET 3.647202 0.000000 0.000000
												CHANNELS 3 Xrotation Yrotation Zrotation
												End Site
												{
													OFFSET 0.000000 3.647186 0.011889
												}
											}
										}
									}
								}
							}
						}
					}
				}
				JOINT RightShoulder
				{
					OFFSET -15.141001 14.495407 -7.737500
					CHANNELS 3 Xrotation Yrotation Zrotation
					JOINT RightArm
					{
						OFFSET -9.308998 -2.777710 0.208500
						CHANNELS 3 Xrotation Yrotation Zrotation
						JOINT RightForeArm
						{
							OFFSET -29.972300 0.000000 0.000000
							CHANNELS 3 Xrotation Yrotation Zrotation
							JOINT RightHand
							{
								OFFSET -26.026505 0.000000 0.000000
								CHANNELS 3 Xrotation Yrotation Zrotation
								JOINT RightHandThumb1
								{
									OFFSET -12.240601 -7.148026 9.207092
									CHANNELS 3 Xrotation Yrotation Zrotation
									JOINT RightHandThumb2
									{
										OFFSET -4.138618 -2.389435 2.389433
										CHANNELS 3 Xrotation Yrotation Zrotation
										JOINT RightHandThumb3
										{
											OFFSET -2.726974 -1.574417 1.574421
											CHANNELS 3 Xrotation Yrotation Zrotation
											JOINT RightHandThumb4
											{
												OFFSET -3.941010 -2.275345 2.275343
												CHANNELS 3 Xrotation Yrotation Zrotation
												End Site
												{
													OFFSET 0.005814 5.087799 0.009927
												}
											}
										}
									}
								}
								JOINT RightHandIndex1
								{
									OFFSET -24.424698 -1.985657 5.953444
									CHANNELS 3 Xrotation Yrotation Zrotation
									JOINT RightHandIndex2
									{
										OFFSET -6.426697 0.000000 0.000000
										CHANNELS 3 Xrotation Yrotation Zrotation
										JOINT RightHandIndex3
										{
											OFFSET -5.337898 0.000000 0.000000
											CHANNELS 3 Xrotation Yrotation Zrotation
											JOINT RightHandIndex4
											{
												OFFSET -4.409401 0.000000 0.000000
												CHANNELS 3 Xrotation Yrotation Zrotation
												End Site
												{
													OFFSET 0.000000 4.409363 0.014408
												}
											}
										}
									}
								}
								JOINT RightHandMiddle1
								{
									OFFSET -23.810097 0.000000 0.000000
									CHANNELS 3 Xrotation Yrotation Zrotation
									JOINT RightHandMiddle2
									{
										OFFSET -7.176498 0.000000 0.000000
										CHANNELS 3 Xrotation Yrotation Zrotation
										JOINT RightHandMiddle3
										{
											OFFSET -6.774902 0.000000 0.000000
											CHANNELS 3 Xrotation Yrotation Zrotation
											JOINT RightHandMiddle4
											{
												OFFSET -5.403328 0.000000 0.000000
												CHANNELS 3 Xrotation Yrotation Zrotation
												End Site
												{
													OFFSET 0.027702 5.403244 0.017457
												}
											}
										}
									}
								}
								JOINT RightHandRing1
								{
									OFFSET -22.908302 -0.839325 -6.020576
									CHANNELS 3 Xrotation Yrotation Zrotation
									JOINT RightHandRing2
									{
										OFFSET -6.337502 0.000000 0.000000
										CHANNELS 3 Xrotation Yrotation Zrotation
										JOINT RightHandRing3
										{
											OFFSET -5.779297 0.000000 0.000000
											CHANNELS 3 Xrotation Yrotation Zrotation
											JOINT RightHandRing4
											{
												OFFSET -4.965698 0.000000 0.000000
												CHANNELS 3 Xrotation Yrotation Zrotation
												End Site
												{
													OFFSET 0.000000 4.965668 0.016226
												}
											}
										}
									}
								}
								JOINT RightHandPinky1
								{
									OFFSET -20.037003 -1.530334 -10.950259
									CHANNELS 3 Xrotation Yrotation Zrotation
									JOINT RightHandPinky2
									{
										OFFSET -5.254700 0.000000 0.000000
										CHANNELS 3 Xrotation Yrotation Zrotation
										JOINT RightHandPinky3
										{
											OFFSET -4.810204 0.000000 0.000000
											CHANNELS 3 Xrotation Yrotation Zrotation
											JOINT RightHandPinky4
											{
												OFFSET -3.647202 0.000000 0.000000
												CHANNELS 3 Xrotation Yrotation Zrotation
												End Site
												{
													OFFSET 0.000000 3.647186 0.011917
												}
											}
										}
									}
								}
							}
						}
					}
				}
			}
		}
	}
	JOINT LeftUpLeg
	{
		OFFSET 15.427100 -6.655098 0.678600
		CHANNELS 3 Xrotation Yrotation Zrotation
		JOINT LeftLeg
		{
			OFFSET 4.081073 -39.591068 13.024000
			CHANNELS 3 Xrotation Yrotation Zrotation
			JOINT LeftFoot
			{
				OFFSET -4.081074 -37.707932 -15.979700
				CHANNELS 3 Xrotation Yrotation Zrotation
				JOINT LeftToeBase
				{
					OFFSET 5.346399 -15.068900 20.645000
					CHANNELS 3 Xrotation Yrotation Zrotation
					JOINT LeftToe_End
					{
						OFFSET 2.754700 0.931300 11.300900
						CHANNELS 3 Xrotation Yrotation Zrotation
						End Site
						{
							OFFSET 0.000000 11.669021 0.000000
						}
					}
				}
			}
		}
	}
	JOINT RightUpLeg
	{
		OFFSET -15.569500 -6.655098 0.678600
		CHANNELS 3 Xrotation Yrotation Zrotation
		JOINT RightLeg
		{
			OFFSET -4.081825 -39.591045 13.023800
			CHANNELS 3 Xrotation Yrotation Zrotation
			JOINT RightFoot
			{
				OFFSET 4.081824 -37.707954 -15.979600
				CHANNELS 3 Xrotation Yrotation Zrotation
				JOINT RightToeBase
				{
					OFFSET -5.346400 -15.068900 20.645000
					CHANNELS 3 Xrotation Yrotation Zrotation
					JOINT RightToe_End
					{
						OFFSET -2.754700 0.931300 11.300900
						CHANNELS 3 Xrotation Yrotation Zrotation
						End Site
						{
							OFFSET 0.000000 11.669021 0.000000
						}
					}
				}
			}
		}
	}
}
MOTION
Frames: 4
Frame Time: 0.033333
4.196420 86.402931 -6.474106 -7.542900 -54.250103 -6.938391 3.357897 0.266221 4.653787 3.163030 0.106924 0.576905 3.162615 0.074077 0.580638 4.722460 3.558534 0.016240 5.269157 21.087342 -12.269152 0.000000 0.000003 -0.000000 0.713297 -2.457619 0.058719 -41.987714 21.654418 -22.163221 -0.025476 -89.345213 -0.025288 9.360523 -2.564828 -4.246018 -1.540038 3.690195 6.142372 3.939050 7.948699 0.746814 -0.579467 1.575004 2.538714 0.000004 0.000000 0.000003 0.004060 0.236724 -1.961866 0.004055 0.236705 -1.961892 0.001012 0.118369 -0.980934 -0.000001 -0.000001 -0.000001 0.003987 0.234797 -1.945884 0.004120 0.238637 -1.977861 0.001003 0.118361 -0.980938 -0.000002 0.000003 -0.000001 0.004060 0.236724 -1.961865 0.004054 0.236706 -1.961889 0.001009 0.118366 -0.980933 0.000000 -0.000005 0.000001 0.125039 4.289217 -1.456225 -0.011916 -3.817595 -2.472519 0.001015 0.118377 -0.980922 0.000002 0.000001 0.000002 0.742370 1.573356 1.559770 -52.191559 30.603062 48.139385 -0.000015 106.401274 0.000024 -14.736483 15.536027 6.926534 -1.849251 -3.581776 -6.586136 4.637192 -8.634136 -0.225400 -1.273748 0.137308 -2.094874 0.000001 0.000001 -0.000003 0.072878 -1.006120 8.285634 0.072880 -1.006125 8.285624 0.018241 -0.504383 4.142498 0.000002 -0.000002 0.000000 0.072879 -1.006120 8.285630 0.072884 -1.006130 8.285624 0.018238 -0.504380 4.142501 -0.000001 -0.000002 -0.000001 0.072881 -1.006130 8.285620 0.072883 -1.006121 8.285628 0.018242 -0.504384 4.142496 -0.000000 0.000000 -0.000000 0.072878 -1.006120 8.285630 0.072882 -1.006128 8.285623 0.018243 -0.504386 4.142501 -0.000000 -0.000000 -0.000001 -24.379448 13.334566 29.825927 27.642008 -8.118261 -1.116517 0.301232 1.149703 -13.585731 -8.737612 -0.000009 -0.000001 0.000000 -0.000000 -0.000000 -13.778844 -11.793963 -20.314514 31.469509 7.930668 -2.265109 -12.756760 -1.354594 16.786182 -7.204841 -0.000019 0.000006 -0.000000 0.000001 -0.000000 
4.165846 86.418549 -6.727922 -8.845629 -53.661443 -8.135097 3.046463 0.386118 4.729267 3.164742 0.114561 0.723419 3.164552 0.086290 0.727342 4.798614 3.490397 0.072867 5.530927 20.764267 -12.159107 0.000000 0.000001 -0.000000 0.659585 -2.343099 0.226941 -42.200078 21.415580 -22.421399 -0.094893 -89.745598 -0.095375 10.211886 -2.524153 -4.832848 -1.540036 3.690195 6.142370 3.939050 7.948705 0.746806 -0.579463 1.575005 2.538708 0.000004 0.000001 0.000002 0.004047 0.236717 -1.961871 0.004054 0.236711 -1.961891 0.001014 0.118375 -0.980931 -0.000000 0.000003 0.000003 0.003979 0.234787 -1.945888 0.004124 0.238638 -1.977860 0.001010 0.118377 -0.980923 -0.000002 0.000002 0.000001 0.004047 0.236717 -1.961871 0.004052 0.236708 -1.961891 0.001015 0.118379 -0.980926 0.000001 0.000003 -0.000001 0.125032 4.289195 -1.456234 -0.011909 -3.817589 -2.472520 0.001009 0.118374 -0.980929 0.000002 0.000001 0.000003 0.701430 1.477220 1.414826 -51.943729 30.401005 47.934312 0.000027 106.505715 -0.000031 -15.044511 15.244801 7.344106 -1.849239 -3.581794 -6.586132 4.637196 -8.634137 -0.225405 -1.273745 0.137308 -2.094878 0.000000 0.000000 -0.000003 0.072885 -1.006142 8.285625 0.072882 -1.006119 8.285627 0.018243 -0.504387 4.142488 0.000001 -0.000003 -0.000000 0.072886 -1.006143 8.285624 0.072884 -1.006121 8.285632 0.018238 -0.504388 4.142488 0.000000 0.000000 0.000001 0.072882 -1.006126 8.285631 0.072887 -1.006137 8.285629 0.018242 -0.504389 4.142485 -0.000001 0.000001 -0.000000 0.072885 -1.006142 8.285624 0.072884 -1.006123 8.285629 0.018245 -0.504385 4.142485 -0.000001 -0.000002 0.000001 -23.739014 13.332931 29.901322 27.251538 -8.535155 -1.017449 -0.131342 0.317338 -13.065634 -8.370702 -0.000008 -0.000000 0.000000 0.000001 0.000000 -12.865669 -11.910003 -19.983341 31.617260 8.163995 -2.251790 -12.676264 -1.459387 16.548835 -7.573541 -0.000018 -0.000001 0.000000 -0.000001 -0.000000 
4.155905 86.375702 -6.928544 -9.631404 -53.337282 -8.866630 2.891249 0.433475 4.738551 3.148017 0.114193 0.890196 3.147974 0.089854 0.893927 4.833167 3.451257 0.047667 5.747964 20.504371 -12.124189 0.000001 0.000001 0.000000 0.616241 -2.176345 0.313889 -42.175506 21.119181 -22.635841 3.271909 -89.902310 3.269439 10.278113 -2.467962 -5.033524 -1.540038 3.690191 6.142368 3.939051 7.948708 0.746805 -0.579466 1.575004 2.538709 0.000002 0.000001 -0.000001 0.004054 0.236701 -1.961881 0.004050 0.236705 -1.961874 0.001013 0.118373 -0.980944 0.000002 0.000001 -0.000000 0.003986 0.234776 -1.945906 0.004121 0.238650 -1.977854 0.001016 0.118382 -0.980936 -0.000003 -0.000002 0.000001 0.004054 0.236701 -1.961880 0.004046 0.236704 -1.961872 0.001013 0.118367 -0.980941 -0.000001 0.000000 -0.000002 0.125030 4.289188 -1.456234 -0.011917 -3.817593 -2.472520 0.001014 0.118376 -0.980941 0.000001 -0.000002 0.000001 0.667528 1.442380 1.205096 -51.676713 30.275596 47.723618 0.000081 106.467814 -0.000083 -15.450530 15.357880 7.395303 -1.849246 -3.581793 -6.586141 4.637195 -8.634134 -0.225406 -1.273751 0.137308 -2.094871 0.000003 0.000001 0.000002 0.072877 -1.006141 8.285622 0.072874 -1.006119 8.285628 0.018240 -0.504374 4.142502 -0.000001 -0.000001 -0.000002 0.072877 -1.006141 8.285621 0.072875 -1.006123 8.285631 0.018239 -0.504379 4.142500 -0.000001 -0.000000 -0.000001 0.072873 -1.006137 8.285616 0.072876 -1.006124 8.285631 0.018239 -0.504379 4.142499 0.000000 0.000001 0.000001 0.072877 -1.006141 8.285621 0.072874 -1.006124 8.285631 0.018237 -0.504374 4.142501 0.000002 -0.000002 0.000004 -23.401963 13.312659 30.039022 27.035861 -8.835657 -1.002855 -0.427376 -0.269924 -12.784121 -8.106229 -0.000029 0.000000 0.000000 0.000001 -0.000000 -12.393600 -11.896892 -19.710582 31.809045 8.313548 -2.288730 -12.708877 -1.496058 16.384020 -7.674672 0.000004 -0.000001 -0.000000 0.000000 -0.000000 
4.157063 86.293365 -7.061381 -9.850874 -53.361509 -9.083055 2.951909 0.378718 4.671349 3.093039 0.101475 1.071925 3.093039 0.080569 1.074935 4.823343 3.451420 -0.087028 5.838108 20.333627 -12.143924 0.000000 -0.000001 0.000000 0.582342 -1.934237 0.308358 -41.807380 20.754226 -22.798816 0.413246 -89.739868 0.413533 9.203320 -2.319695 -4.822268 -1.540039 3.690194 6.142371 3.939051 7.948703 0.746807 -0.579463 1.575004 2.538715 0.000000 -0.000001 0.000000 0.004057 0.236709 -1.961893 0.004048 0.236706 -1.961875 0.001011 0.118369 -0.980946 0.000001 0.000001 -0.000001 0.003987 0.234780 -1.945908 0.004118 0.238649 -1.977856 0.001014 0.118364 -0.980949 0.000001 0.000000 0.000001 0.004057 0.236709 -1.961892 0.004048 0.236704 -1.961872 0.001011 0.118371 -0.980947 -0.000001 -0.000001 -0.000001 0.125038 4.289213 -1.456234 -0.011909 -3.817593 -2.472531 0.001010 0.118369 -0.980945 -0.000000 -0.000003 0.000002 0.643456 1.500545 0.901658 -51.292207 30.177483 47.517503 -0.000029 106.168713 0.000025 -15.968735 16.051460 7.266885 -1.849258 -3.581796 -6.586146 4.637202 -8.634137 -0.225408 -1.273748 0.137308 -2.094873 -0.000003 0.000001 0.000001 0.072877 -1.006137 8.285625 0.072880 -1.006129 8.285632 0.018246 -0.504393 4.142492 -0.000000 -0.000000 -0.000000 0.072877 -1.006137 8.285624 0.072881 -1.006131 8.285634 0.018245 -0.504397 4.142490 -0.000002 -0.000001 0.000000 0.072878 -1.006135 8.285621 0.072880 -1.006134 8.285632 0.018245 -0.504395 4.142489 0.000002 0.000000 -0.000001 0.072877 -1.006137 8.285624 0.072881 -1.006135 8.285633 0.018243 -0.504392 4.142491 0.000001 0.000001 -0.000001 -23.412374 13.280919 30.263766 27.019361 -9.050395 -1.129219 -0.412445 -0.468170 -12.804427 -8.010772 0.000017 -0.000000 0.000001 0.000000 -0.000001 -12.427610 -11.733327 -19.545146 32.056233 8.408695 -2.374855 -12.871182 -1.518833 16.478451 -7.547121 0.000019 0.000006 0.000000 0.000001 0.000000 
